<?xml version="1.0" encoding="UTF-8"?>
<svg width="286px" height="120px" viewBox="0 0 286 120" version="1.1" xmlns="http://www.w3.org/2000/svg" xmlns:xlink="http://www.w3.org/1999/xlink">
    <!-- Generator: Sketch 55.1 (78136) - https://sketchapp.com -->
    <title>logo--white</title>
    <desc>Created with Sketch.</desc>
    <g id="logo--white" stroke="none" stroke-width="1" fill="none" fill-rule="evenodd">
        <path d="M74.8387097,1.93978354 C73.9200068,2.02932736 73.0189021,2.29403472 72.1353781,2.7339098 C71.0260242,3.28621757 70.1662878,4.14228178 69.5561431,5.3021281 L57.3255773,43.5768653 C56.6044972,45.7308656 56.2439626,47.5120315 56.2439626,48.9204163 L56.2439626,51.6129032 L55.5783536,51.6129032 L38.4389212,22.7825817 L27.28997,43.8254026 C25.9587453,46.4212491 25.293143,49.0170567 25.293143,51.6129032 L24.6275339,51.6129032 L6.65609025,5.88204836 C6.04594559,4.50127893 5.17234249,3.49333237 4.03525472,2.85817843 C2.89816695,2.22302449 1.74722952,1.90545229 0.582407897,1.90545229 L0,1.90545229 L0,1.07699477 L27.3731712,1.07699477 L27.3731712,1.90545229 L26.624361,1.90545229 C25.6814102,1.90545229 24.9603409,2.19540952 24.4611317,2.77533268 C23.9619224,3.35525584 23.7123215,3.89374784 23.7123215,4.39082483 C23.7123215,4.88790183 23.7677884,5.35735639 23.8787238,5.79920261 L31.5332276,23.0311189 L43.5973912,0 L44.179799,0 L58.4903931,23.8595765 L63.648863,6.13058562 C63.7597984,5.63350862 63.8152653,5.10882411 63.8152653,4.55651634 C63.8152653,4.00420856 63.5795311,3.4242941 63.1080557,2.81675555 C62.6365803,2.209217 61.8739109,1.90545229 60.8200247,1.90545229 L60.2376168,1.90545229 L60.2376168,1.07699477 L76.1290323,1.07699477 L76.1290323,1.22738002 L107.455197,1.22738002 C108.849071,1.22738002 110.410186,1.09100582 112.13859,0.818253344 C113.866994,0.545500865 115.065708,0.272752478 115.734767,0 L115.734767,15.4649882 L114.898447,15.4649882 L114.898447,15.0558615 C114.898447,11.8919328 114.048196,9.43719729 112.34767,7.69158143 C110.647144,5.94596557 108.235778,5.04589589 105.113501,4.9913454 L96.4994026,4.9913454 L96.4994026,24.220299 L102.939068,24.220299 C105.392286,24.1657485 107.385496,23.3611407 108.918757,21.8064516 C110.452019,20.2517625 111.218638,18.2470618 111.218638,15.7922895 L111.218638,15.6286389 L112.054958,15.6286389 L112.054958,36.7395751 L111.218638,36.7395751 L111.218638,36.4122738 C111.218638,34.012052 110.452019,32.0209888 108.918757,30.4390244 C107.385496,28.85706 105.392286,28.0660897 102.939068,28.0660897 L96.4994026,28.0660897 L96.4994026,46.5586153 L104.528076,46.5586153 C107.873374,46.5586153 110.911974,45.3585224 113.643967,42.9583006 C116.375959,40.5580787 118.243723,37.2850981 119.247312,33.1392604 L120,33.1392604 L117.658303,50.3225806 L74.8387097,50.3225806 L74.8387097,49.5043273 L75.7586619,49.5043273 C76.929516,49.5043273 77.821582,49.2043041 78.4348865,48.6042486 C79.5499857,47.5677892 80.1075269,46.4495208 80.1075269,45.2494099 L80.1075269,6.38237608 C80.1075269,5.12771468 79.6754324,4.09127081 78.8112306,3.27301338 C77.9470287,2.45475594 76.929516,2.04563336 75.7586619,2.04563336 L74.8387097,2.04563336 L74.8387097,1.93978593 Z M178.064516,15.3581902 L177.245948,15.3581902 L177.245948,14.9497277 C177.300519,10.7561583 175.82711,7.86971883 172.825677,6.29032258 C171.406818,5.47339349 169.660556,5.06493506 167.586838,5.06493506 L161.529431,5.06493506 L161.529431,45.2576456 C161.529431,46.4558083 161.952354,47.463339 162.798212,48.2802681 C163.644071,49.0971972 164.667271,49.5056556 165.867844,49.5056556 L166.686413,49.5056556 L166.686413,50.3225806 L140.410361,50.3225806 L140.410361,49.5056556 L141.22893,49.5056556 C142.374932,49.5056556 143.370847,49.0971972 144.216705,48.2802681 C145.062564,47.463339 145.485487,46.4558083 145.485487,45.2576456 L145.485487,5.06493506 L139.509936,5.06493506 C134.816786,5.119397 131.815398,7.0255363 130.505682,10.7834101 C130.069109,12.0360348 129.850827,13.4247934 129.850827,14.9497277 L129.850827,15.3581902 L129.032258,15.3581902 L129.032258,0 C129.741688,0.272309698 130.942243,0.544615312 132.63396,0.81692501 C134.325677,1.08923471 135.853656,1.22538752 137.217944,1.22538752 L169.87883,1.22538752 C171.29769,1.22538752 172.907525,1.08923471 174.708385,0.81692501 C176.509245,0.544615312 177.627944,0.272309698 178.064516,0 L178.064516,15.3581902 Z M233.381894,6.35698925 L233.381894,45.255914 C233.381894,46.9448113 234.103357,48.1706055 235.546306,48.9333333 C236.212282,49.3146972 236.933746,49.5053763 237.710718,49.5053763 L238.626431,49.5053763 L238.626431,50.3225806 L211.904266,50.3225806 L211.904266,49.5053763 L212.736733,49.5053763 C213.957689,49.5053763 214.984387,49.0967783 215.816857,48.2795699 C216.649328,47.4623615 217.093305,46.4544863 217.148803,45.255914 L217.148803,27.6043011 L200.915713,27.6043011 L200.915713,45.255914 C200.971211,46.4544863 201.415188,47.4623615 202.247659,48.2795699 C203.080129,49.0967783 204.106827,49.5053763 205.327784,49.5053763 L206.16025,49.5053763 L206.16025,50.3225806 L179.354839,50.3225806 L179.354839,49.5053763 L180.270552,49.5053763 C181.43601,49.5053763 182.448834,49.0967783 183.309053,48.2795699 C184.169272,47.4623615 184.599376,46.4544863 184.599376,45.255914 L184.599376,6.35698925 C184.599376,5.15841695 184.169272,4.15054172 183.309053,3.33333333 C182.448834,2.51612495 181.43601,2.10752688 180.270552,2.10752688 L179.354839,2.10752688 L179.354839,1.29032258 L206.16025,1.29032258 L206.16025,2.10752688 L205.327784,2.10752688 C204.106827,2.10752688 203.080129,2.51612495 202.247659,3.33333333 C201.415188,4.15054172 200.971211,5.15841695 200.915713,6.35698925 L200.915713,23.8451613 L217.148803,23.8451613 L217.148803,6.35698925 C217.093305,5.15841695 216.649328,4.15054172 215.816857,3.33333333 C214.984387,2.51612495 213.957689,2.10752688 212.736733,2.10752688 L211.904266,2.10752688 L211.904266,1.29032258 L238.709677,1.29032258 L238.709677,2.10752688 L237.793965,2.10752688 C236.573008,2.10752688 235.532436,2.50250501 234.672216,3.29247312 C233.811997,4.08244123 233.381894,5.10393639 233.381894,6.35698925 Z M240,50.3225806 L240,49.5043273 L240.919952,49.5043273 C242.090806,49.5043273 242.982872,49.2043041 243.596177,48.6042486 C244.711276,47.5677892 245.268817,46.4495208 245.268817,45.2494099 L245.268817,6.38237608 C245.268817,5.12771468 244.836723,4.09127081 243.972521,3.27301338 C243.108319,2.45475594 242.090806,2.04563336 240.919952,2.04563336 L240,2.04563336 L240,1.22738002 L272.616487,1.22738002 C274.010361,1.22738002 275.571477,1.09100582 277.299881,0.818253344 C279.028284,0.545500865 280.226998,0.272752478 280.896057,0 L280.896057,15.4649882 L280.059737,15.4649882 L280.059737,15.0558615 C280.059737,11.8919328 279.209487,9.43719729 277.508961,7.69158143 C275.808434,5.94596557 273.397069,5.04589589 270.274791,4.9913454 L261.660693,4.9913454 L261.660693,24.220299 L268.100358,24.220299 C270.553577,24.1657485 272.546786,23.3611407 274.080048,21.8064516 C275.613309,20.2517625 276.379928,18.2470618 276.379928,15.7922895 L276.379928,15.6286389 L277.216249,15.6286389 L277.216249,36.7395751 L276.379928,36.7395751 L276.379928,36.4122738 C276.379928,34.012052 275.613309,32.0209888 274.080048,30.4390244 C272.546786,28.85706 270.553577,28.0660897 268.100358,28.0660897 L261.660693,28.0660897 L261.660693,46.5586153 L269.689367,46.5586153 C273.034664,46.5586153 276.073264,45.3585224 278.805257,42.9583006 C281.53725,40.5580787 283.405013,37.2850981 284.408602,33.1392604 L285.16129,33.1392604 L282.819594,50.3225806 L240,50.3225806 Z M60.6469915,76.6129032 C60.6469915,79.9677587 59.8386415,83.0645019 58.2219172,85.9032258 C56.346517,89.1935648 53.0161148,91.2580603 48.2306108,92.0967742 C50.4940249,92.6774223 52.579568,93.8225721 54.4873027,95.5322581 C56.3950374,97.241944 57.6560634,98.6451613 58.2704187,99.7419355 C58.8847739,100.838715 59.5152869,102.064509 60.1619767,103.419355 C63.9774461,110.838747 66.9845082,115.258057 69.1832533,116.677419 C70.3472948,117.3871 71.8023248,117.741935 73.5483871,117.741935 L73.5483871,118.709677 L62.1020361,118.709677 C55.6998078,118.709677 51.5287217,118.290327 49.5886525,117.451613 C46.9372246,116.290317 45.0133515,114.983878 43.8169755,113.532258 C42.6205995,112.080638 41.4727425,110.387106 40.3733699,108.451613 C38.6273077,105.483856 37.2046116,101.258092 36.1052391,95.7741935 C35.4585493,92.8709532 34.3915273,91.0322619 32.9041409,90.2580645 L32.9041409,89.483871 L33.3891558,89.483871 C35.199887,89.483871 36.7842531,88.6612985 38.1423015,87.016129 C39.50035,85.3709595 40.373368,82.6774381 40.7613818,78.9354839 L40.7613818,78.3548387 C41.0847267,75.4515984 40.8260547,73.0483966 39.985358,71.1451613 C39.1446614,69.241926 38.4009794,67.9677452 37.7542896,67.3225806 C37.1075999,66.6774161 36.2669159,66.19355 35.2322123,65.8709677 C34.1328398,65.483869 33.1304857,65.2903226 32.2251201,65.2903226 L30.2850606,65.2903226 L30.2850606,112.709677 C30.2850606,114.322589 30.8185716,115.564512 31.8856097,116.435484 C32.9526478,117.306456 34.1328388,117.741935 35.4262183,117.741935 L36.299245,117.741935 L36.299245,118.709677 L5.16129032,118.709677 L5.16129032,117.741935 L6.22832304,117.741935 C7.58637147,117.741935 8.75039552,117.258069 9.72043011,116.290323 C10.6904647,115.322576 11.1754747,114.129039 11.1754747,112.709677 L11.1754747,66.6451613 C11.1754747,65.2257994 10.7066317,64.0322629 9.76893159,63.0645161 C8.83123149,62.0967694 7.68337444,61.6129032 6.32532601,61.6129032 L5.16129032,61.6129032 L5.16129032,60.6451613 L38.5303134,60.6451613 C53.2748392,60.6451613 60.6469915,65.9676887 60.6469915,76.6129032 Z M64.516129,89.6774194 C64.516129,80.0881792 67.6475047,72.6371923 73.91035,67.3242349 C80.1731953,62.0112775 88.8696583,59.3548387 100,59.3548387 C111.130342,59.3548387 119.826805,62.0112775 126.08965,67.3242349 C132.352495,72.6371923 135.483871,80.0881792 135.483871,89.6774194 C135.483871,99.2666595 132.352495,106.717646 126.08965,112.030604 C119.826805,117.343561 111.130342,120 100,120 C88.8696583,120 80.1731953,117.343561 73.91035,112.030604 C67.6475047,106.717646 64.516129,99.2666595 64.516129,89.6774194 Z M85.1612903,89.0322581 C85.1612903,97.2800541 86.4838577,103.643004 89.1290323,108.1213 C91.7742068,112.599596 95.6128781,114.83871 100.645161,114.83871 C105.677445,114.83871 109.516116,112.599596 112.16129,108.1213 C114.806465,103.643004 116.129032,97.3122716 116.129032,89.1289114 C116.129032,77.9814996 113.806475,70.3781766 109.16129,66.3187145 C106.838698,64.2567655 104.000017,63.2258065 100.645161,63.2258065 C95.6128781,63.2258065 91.7742068,65.4649206 89.1290323,69.9432161 C86.4838577,74.4215117 85.1612903,80.784462 85.1612903,89.0322581 Z M184.516129,99.2018197 C184.516129,106.328958 181.93551,111.674231 176.774194,115.2378 C172.200875,118.412616 165.863658,120 157.762352,120 C152.927701,120 148.893442,119.465473 145.659453,118.396402 C142.425464,117.327331 140.187838,116.01531 138.946509,114.460298 C138.358511,113.099662 138.064516,111.674256 138.064516,110.184036 C138.064516,108.693817 138.19518,107.26841 138.456513,105.907775 C139.175177,102.47379 140.31849,99.784956 141.886484,97.8411911 L142.474479,97.8411911 L142.474479,98.7158809 C142.474479,103.056956 144.042451,106.944427 147.17844,110.378412 C150.379763,113.812397 154.789682,115.529363 160.40833,115.529363 C163.740319,115.529363 166.255606,114.784264 167.954267,113.294045 C169.652928,111.803825 170.502246,110.086858 170.502246,108.143093 C170.502246,106.199329 169.734593,104.482362 168.199265,102.992142 C166.663937,101.501923 164.164983,100.011725 160.702327,98.5215054 L150.412413,93.7593052 C146.231094,92.0099168 143.160483,89.4506648 141.20049,86.0814723 C139.697828,83.4897858 138.946509,80.6389734 138.946509,77.5289495 C138.946509,76.4922749 139.011841,75.4556159 139.142507,74.4189413 C140.579836,64.376156 146.786389,59.3548387 157.762352,59.3548387 C161.421006,59.3548387 166.353583,59.6463991 172.560229,60.2295285 L179.126174,60.2295285 L176.774194,74.4189413 L176.186198,74.4189413 C176.186198,71.2441253 175.026553,68.701071 172.707227,66.7897022 C170.387902,64.8783334 167.496955,63.9226634 164.0343,63.9226634 C157.370322,63.9226634 153.809721,66.0607727 153.352389,70.3370554 C153.156389,72.4104046 153.940375,74.06258 155.704369,75.2936311 C157.076365,76.2007214 158.970996,77.1401937 161.388322,78.1120761 L174.030216,83.8461538 C177.492872,85.3363736 180.106157,87.4096917 181.870151,90.0661704 C183.634145,92.7226491 184.516129,95.767835 184.516129,99.2018197 Z M183.225806,118.709677 L183.225806,117.744558 L184.303465,117.744558 C185.675037,117.744558 186.720028,117.390685 187.438471,116.682927 C188.74473,115.460436 189.397849,114.141453 189.397849,112.725938 L189.397849,66.8827695 C189.397849,65.4029124 188.891682,64.1804402 187.879331,63.215316 C186.86698,62.2501919 185.675037,61.767637 184.303465,61.767637 L183.225806,61.767637 L183.225806,60.8025177 L221.433692,60.8025177 C223.066516,60.8025177 224.895251,60.6416661 226.919952,60.319958 C228.944654,59.99825 230.348861,59.6765468 231.132616,59.3548387 L231.132616,77.595594 L230.152927,77.595594 L230.152927,77.1130344 C230.152927,73.381221 229.15692,70.4858919 227.164875,68.4269604 C225.17283,66.3680289 222.348087,65.3064082 218.690562,65.2420666 L208.599761,65.2420666 L208.599761,87.9223708 L216.143369,87.9223708 C219.017139,87.8580292 221.352042,86.9090047 223.148148,85.0752688 C224.944254,83.2415329 225.842294,80.8770142 225.842294,77.9816418 L225.842294,77.7886179 L226.821983,77.7886179 L226.821983,102.688697 L225.842294,102.688697 L225.842294,102.302649 C225.842294,99.471618 224.944254,97.1231844 223.148148,95.2572777 C221.352042,93.391371 219.017139,92.4584317 216.143369,92.4584317 L208.599761,92.4584317 L208.599761,114.270129 L218.004779,114.270129 C221.923556,114.270129 225.483058,112.854634 228.683393,110.023603 C231.883728,107.192573 234.071679,103.332134 235.247312,98.4421715 L236.129032,98.4421715 L233.385902,118.709677 L183.225806,118.709677 Z M285.16129,99.2018197 C285.16129,106.328958 282.580671,111.674231 277.419355,115.2378 C272.846037,118.412616 266.50882,120 258.407513,120 C253.572863,120 249.538603,119.465473 246.304614,118.396402 C243.070625,117.327331 240.832999,116.01531 239.59167,114.460298 C239.003672,113.099662 238.709677,111.674256 238.709677,110.184036 C238.709677,108.693817 238.840342,107.26841 239.101674,105.907775 C239.820338,102.47379 240.963651,99.784956 242.531646,97.8411911 L243.119641,97.8411911 L243.119641,98.7158809 C243.119641,103.056956 244.687612,106.944427 247.823601,110.378412 C251.024924,113.812397 255.434843,115.529363 261.053491,115.529363 C264.38548,115.529363 266.900767,114.784264 268.599428,113.294045 C270.298089,111.803825 271.147407,110.086858 271.147407,108.143093 C271.147407,106.199329 270.379755,104.482362 268.844426,102.992142 C267.309098,101.501923 264.810144,100.011725 261.347489,98.5215054 L251.057575,93.7593052 C246.876255,92.0099168 243.805645,89.4506648 241.845651,86.0814723 C240.34299,83.4897858 239.59167,80.6389734 239.59167,77.5289495 C239.59167,76.4922749 239.657002,75.4556159 239.787668,74.4189413 C241.224997,64.376156 247.43155,59.3548387 258.407513,59.3548387 C262.066168,59.3548387 266.998744,59.6463991 273.20539,60.2295285 L279.771335,60.2295285 L277.419355,74.4189413 L276.83136,74.4189413 C276.83136,71.2441253 275.671714,68.701071 273.352389,66.7897022 C271.033063,64.8783334 268.142116,63.9226634 264.679461,63.9226634 C258.015483,63.9226634 254.454882,66.0607727 253.99755,70.3370554 C253.801551,72.4104046 254.585536,74.06258 256.34953,75.2936311 C257.721526,76.2007214 259.616158,77.1401937 262.033483,78.1120761 L274.675378,83.8461538 C278.138033,85.3363736 280.751318,87.4096917 282.515312,90.0661704 C284.279306,92.7226491 285.16129,95.767835 285.16129,99.2018197 Z" id="Combined-Shape" fill="#FFFFFF" fill-rule="nonzero"></path>
    </g>
</svg>